<?xml version="1.0" standalone="no"?>
<!DOCTYPE svg PUBLIC "-//W3C//DTD SVG 20010904//EN"
 "http://www.w3.org/TR/2001/REC-SVG-20010904/DTD/svg10.dtd">
<svg version="1.0" xmlns="http://www.w3.org/2000/svg"
 width="1621.000000pt" height="672.000000pt" viewBox="0 0 1621.000000 672.000000"
 preserveAspectRatio="xMidYMid meet">

<g transform="translate(0.000000,672.000000) scale(0.100000,-0.100000)"
fill="#ffffff" stroke="none">
<path d="M1515 5738 c-168 -31 -331 -183 -374 -348 -6 -25 -65 -340 -130 -700
-66 -360 -181 -990 -256 -1400 -75 -410 -156 -855 -181 -988 -24 -134 -44
-272 -44 -305 0 -192 123 -369 311 -449 l54 -23 6180 -5 c5924 -5 6183 -6
6250 -24 39 -10 111 -38 162 -62 120 -57 237 -168 397 -374 64 -83 169 -218
233 -301 172 -222 259 -318 307 -340 101 -46 185 -4 225 113 11 32 42 153 70
270 44 189 82 364 216 998 43 203 127 650 295 1575 259 1426 330 1832 330
1891 0 202 -123 375 -325 455 l-60 24 -1770 3 -1770 2 -69 -565 c-38 -311 -67
-568 -63 -571 3 -3 25 7 49 23 168 114 357 173 552 173 310 -1 518 -170 571
-465 27 -147 16 -312 -54 -885 -34 -272 -64 -505 -66 -517 l-5 -23 -341 0
-341 0 6 38 c35 221 108 869 109 972 2 116 0 129 -24 181 -45 96 -129 138
-254 126 -119 -11 -213 -82 -254 -192 -32 -85 -47 -177 -107 -662 l-58 -463
-341 0 -341 0 37 303 c37 294 295 2385 306 2480 l6 47 -4694 -1 c-2884 -1
-4713 -5 -4744 -11z m4566 -73 c57 -20 83 -46 109 -108 46 -106 6 -267 -80
-323 -46 -31 -107 -43 -207 -44 l-81 0 -6 -37 c-3 -21 -8 -63 -11 -93 -3 -30
-8 -67 -11 -82 l-6 -28 -89 0 -89 0 0 30 c0 16 18 176 40 354 22 178 40 329
40 335 0 18 337 15 391 -4z m1603 -145 l-7 -80 48 0 47 0 -7 -42 c-15 -102
-12 -98 -61 -98 -24 0 -44 -1 -45 -2 0 -2 -10 -79 -22 -173 l-22 -170 -84 -3
c-46 -2 -87 1 -92 5 -4 4 1 73 12 153 25 201 26 190 -17 190 l-37 0 7 46 c3
26 6 57 6 70 0 21 5 24 39 24 44 0 43 -1 56 108 l7 52 90 0 89 0 -7 -80z
m-1108 -79 c23 -10 45 -24 48 -30 11 -18 26 -13 26 9 0 19 7 20 91 20 l91 0
-6 -37 c-3 -21 -15 -114 -26 -208 -11 -93 -23 -187 -26 -207 l-6 -38 -90 0
c-90 0 -90 0 -86 24 l5 24 -37 -24 c-41 -27 -118 -40 -175 -30 -20 4 -53 22
-75 42 -51 47 -75 110 -74 197 4 194 183 329 340 258z m712 -11 l50 -22 -18
-54 c-26 -75 -25 -74 -69 -52 -49 24 -124 22 -129 -4 -2 -13 8 -20 40 -28 66
-16 114 -40 140 -67 34 -36 33 -125 -2 -176 -40 -59 -98 -82 -205 -82 -78 1
-97 4 -145 29 -30 15 -59 31 -63 36 -8 7 17 66 45 104 14 18 16 18 57 -3 57
-29 130 -37 156 -18 27 21 12 34 -61 53 -78 21 -120 54 -134 104 -22 83 32
175 117 198 55 16 163 7 221 -18z m903 14 c103 -29 162 -99 175 -207 13 -110
-43 -217 -142 -267 -42 -21 -62 -25 -144 -25 -108 0 -162 18 -218 74 -47 47
-64 86 -70 158 -16 199 178 329 399 267z m485 -30 l-7 -25 44 25 c32 19 58 26
97 26 l52 0 -6 -67 c-11 -105 -10 -104 -53 -87 -46 20 -99 8 -125 -27 -14 -18
-25 -66 -39 -160 -10 -74 -19 -137 -19 -141 0 -12 -180 -10 -180 2 0 17 51
434 56 458 4 21 9 22 95 22 l91 0 -6 -26z m-4692 -146 c-7 -12 -139 -206 -316
-463 -577 -837 -1127 -1641 -1128 -1646 0 -4 111 -10 248 -13 379 -9 804 -26
837 -33 l30 -6 -28 34 c-97 121 -173 291 -197 441 -16 101 -8 360 14 451 60
247 212 467 419 606 311 210 860 230 1177 42 131 -78 252 -215 315 -357 60
-134 77 -224 82 -431 l5 -193 -688 -2 -689 -3 3 -55 c8 -138 48 -210 145 -259
61 -32 76 -35 155 -35 50 -1 104 5 126 13 54 19 112 74 132 127 l17 44 368 0
c262 0 369 -3 369 -11 0 -21 -78 -178 -125 -251 -60 -93 -172 -202 -259 -252
l-68 -40 158 -28 c87 -16 163 -27 170 -24 6 2 137 150 290 328 153 177 406
470 561 651 l283 327 -400 0 -400 0 5 23 c3 12 21 121 40 242 20 121 38 230
41 243 l4 22 971 0 c562 0 969 -4 967 -9 -1 -5 -242 -289 -535 -632 -292 -343
-541 -636 -553 -651 l-21 -28 441 0 c350 0 441 -3 438 -12 -3 -7 -23 -124 -44
-260 l-39 -248 -1015 -1 c-594 -1 -1003 -5 -985 -10 17 -5 125 -31 240 -59
215 -53 389 -105 553 -168 l92 -35 -153 -156 c-84 -86 -201 -212 -261 -281
-60 -69 -112 -129 -117 -134 -4 -4 -81 28 -171 72 -720 355 -1486 585 -2226
668 -195 21 -595 29 -777 15 -398 -31 -811 -129 -1094 -257 -41 -19 -76 -32
-79 -29 -5 5 504 772 803 1210 219 320 491 703 584 821 l70 89 -530 3 -531 2
6 38 c5 31 41 333 62 520 l6 52 1105 0 c880 0 1103 -3 1097 -12z m6155 -482
c192 -53 314 -186 357 -387 26 -119 12 -314 -64 -929 l-68 -545 -342 -3 -343
-2 6 32 c27 160 108 895 108 988 1 104 -1 120 -25 171 -14 32 -40 67 -59 82
-120 90 -337 45 -413 -85 -59 -103 -77 -193 -147 -765 l-53 -423 -343 0 -343
0 5 23 c3 12 39 299 80 637 42 338 91 739 110 891 19 153 35 280 35 283 0 3
154 6 341 6 l341 0 -6 -32 c-4 -18 -15 -70 -25 -116 l-19 -82 22 17 c216 170
302 216 471 249 87 17 297 11 374 -10z m4146 -5 c379 -81 633 -308 727 -649
19 -66 22 -105 22 -272 0 -185 -1 -199 -27 -285 -83 -269 -279 -494 -532 -611
-275 -127 -686 -137 -993 -25 -325 118 -559 391 -611 712 -16 95 -13 285 5
379 32 169 101 304 216 426 187 196 422 309 728 348 84 10 377 -4 465 -23z
m-5858 -88 c-3 -21 -54 -427 -112 -903 -58 -476 -108 -874 -110 -885 -4 -20
-11 -20 -345 -17 l-341 3 6 32 c3 17 52 417 110 887 57 470 107 870 110 888
l6 32 341 0 341 0 -6 -37z m468 -1957 c104 -44 96 -198 -12 -235 -35 -13 -46
-13 -79 0 -116 44 -108 211 11 242 34 8 45 7 80 -7z m-5597 -25 c490 -58 992
-208 1642 -488 222 -96 540 -249 540 -260 0 -11 -284 -354 -304 -367 -10 -7
-28 1 -62 26 -475 345 -1107 644 -1669 788 -364 93 -533 114 -920 114 -272 0
-328 -2 -455 -22 -253 -40 -472 -90 -637 -146 l-71 -24 -22 80 c-12 44 -20 81
-18 83 2 1 57 21 123 43 237 80 550 145 850 176 222 24 226 24 540 21 215 -2
335 -9 463 -24z m3688 -48 c-3 -16 -8 -58 -12 -95 l-6 -68 -138 0 -138 0 -9
-72 -8 -73 124 -3 124 -3 -7 -62 c-4 -34 -9 -77 -13 -94 l-5 -33 -124 0 c-68
0 -124 -3 -124 -7 0 -5 -9 -78 -20 -163 -11 -85 -20 -158 -20 -162 0 -5 -50
-8 -110 -8 l-111 0 5 33 c6 32 37 289 76 617 11 96 23 185 25 198 l5 22 246 0
246 0 -6 -27z m2480 -115 c-3 -24 -8 -67 -12 -95 l-7 -53 57 0 57 0 -6 -57
c-11 -107 -9 -103 -69 -103 -64 0 -56 24 -87 -237 l-22 -183 -104 0 -103 0 0
28 c0 16 9 100 20 188 27 218 29 204 -23 204 l-43 0 10 80 9 80 47 0 47 0 7
73 c13 127 2 117 123 117 l105 0 -6 -42z m-1200 -154 c58 -28 118 -93 137
-149 10 -27 17 -77 17 -112 l0 -63 -215 0 c-206 0 -215 -1 -215 -19 0 -60 37
-94 104 -94 31 0 45 6 62 27 22 25 27 26 134 26 60 0 110 -4 110 -8 0 -19 -60
-101 -96 -130 -54 -45 -120 -64 -217 -64 -134 1 -211 40 -262 134 -40 73 -46
188 -16 269 37 97 111 167 209 195 64 18 197 12 248 -12z m1832 17 c18 -6 50
-24 72 -41 l40 -32 0 31 0 31 105 0 c100 0 105 -1 105 -21 0 -25 -58 -504 -66
-536 -4 -22 -9 -23 -109 -23 l-104 0 6 33 6 32 -24 -22 c-40 -36 -96 -54 -170
-54 -150 0 -239 103 -239 274 1 155 84 282 212 322 51 16 121 19 166 6z m986
-16 c37 -13 70 -26 73 -29 3 -2 -5 -31 -16 -63 -12 -32 -24 -64 -26 -70 -3
-10 -17 -8 -56 7 -35 14 -69 20 -103 18 -44 -3 -51 -6 -54 -25 -3 -19 7 -24
85 -48 72 -22 95 -34 126 -66 34 -36 37 -45 37 -95 0 -57 -17 -102 -54 -142
-73 -82 -258 -100 -388 -39 -95 44 -94 42 -53 120 20 37 38 67 40 67 1 0 29
-13 60 -30 43 -22 70 -30 110 -30 69 0 85 7 85 36 0 19 -8 25 -42 34 -166 43
-208 79 -208 179 0 164 182 248 384 176z m-3692 -31 l-4 -35 46 32 c38 27 58
34 113 37 l66 5 -7 -74 c-11 -114 -14 -120 -45 -111 -14 4 -50 7 -80 6 -47 -1
-58 -5 -82 -31 -28 -33 -36 -65 -61 -268 l-13 -100 -108 -3 c-100 -2 -108 -1
-104 15 3 10 20 141 38 291 l32 272 107 0 106 0 -4 -36z m1528 22 c0 -22 -60
-517 -65 -543 -5 -22 -10 -23 -110 -23 -58 0 -105 3 -105 8 0 4 16 131 35 282
19 151 35 278 35 283 0 4 47 7 105 7 85 0 105 -3 105 -14z"/>
<path d="M5856 5473 c-4 -32 -10 -73 -13 -92 l-6 -34 54 6 c69 7 104 23 118
54 18 38 13 72 -14 98 -20 20 -34 25 -78 25 l-55 0 -6 -57z"/>
<path d="M6472 5294 c-49 -34 -69 -126 -37 -171 24 -34 76 -47 120 -29 72 30
95 151 38 196 -31 24 -90 26 -121 4z"/>
<path d="M8021 5284 c-71 -60 -55 -177 27 -197 40 -9 91 12 112 46 29 48 27
121 -5 152 -34 35 -93 34 -134 -1z"/>
<path d="M4335 4346 c-112 -36 -181 -111 -220 -243 l-6 -23 315 0 316 0 0 38
c0 91 -83 194 -181 225 -60 20 -167 21 -224 3z"/>
<path d="M13879 4256 c-159 -43 -291 -202 -320 -385 -40 -259 93 -451 325
-468 176 -13 329 77 409 241 78 159 71 376 -17 495 -78 106 -251 157 -397 117z"/>
<path d="M8039 2251 c-52 -52 -42 -61 70 -61 l98 0 -5 25 c-12 66 -111 88
-163 36z"/>
<path d="M10003 2230 c-74 -44 -91 -174 -31 -229 29 -28 88 -36 132 -17 89 37
113 188 39 246 -33 26 -98 26 -140 0z"/>
</g>
</svg>
